<?xml version="1.0" encoding="utf-8"?>
<!-- Svg Vector Icons : http://www.onlinewebfonts.com/icon -->
<!DOCTYPE svg PUBLIC "-//W3C//DTD SVG 1.1//EN" "http://www.w3.org/Graphics/SVG/1.1/DTD/svg11.dtd">
<svg version="1.1" xmlns="http://www.w3.org/2000/svg" xmlns:xlink="http://www.w3.org/1999/xlink" x="0px" y="0px" viewBox="0 0 1000 1000" enable-background="new 0 0 1000 1000" xml:space="preserve">
<metadata> Svg Vector Icons : http://www.onlinewebfonts.com/icon </metadata>
<g><g transform="translate(0.000000,511.000000) scale(0.100000,-0.100000)"><path d="M4406.3,3691c-573.5-70.3-1424-364.5-1880.3-650.2C2110.4,2778.6,1500.7,2239.3,1215,1879c-328.3-413.6-473.3-741.9-507.4-1146.9c-10.7-136.4-21.3-253.7-21.3-262.2c0-8.5-46.9-40.5-102.3-68.2C445.4,331.3,277,143.7,187.5-43.9C63.8-297.6,61.7-289.1,242.9-427.6c85.3-64,196.1-138.6,245.2-164.2l87.4-44.8l8.5-366.7c8.5-313.4,14.9-383.7,55.4-481.8c98.1-245.2,275-451.9,654.5-763.2c117.3-95.9,315.5-260.1,441.3-366.7c652.3-547.9,959.3-663,2095.6-790.9c1087.2-119.4,1888.8-104.5,2662.6,53.3c716.3,145,1247.1,360.3,1809.9,737.6c556.4,370.9,582,400.8,859.1,1010.5c307,680,347.5,852.7,266.5,1146.9c-23.4,89.5-44.8,168.4-44.8,172.7c0,4.3,51.2,44.8,113,87.4c59.7,44.8,176.9,134.3,258,198.3l145,119.4l-8.5,204.6c-10.7,302.7-93.8,411.4-332.5,441.3L9452.3,779l-36.2,234.5c-85.3,558.5-238.8,816.5-744,1249.2C8081.6,2768,7356.8,3166.6,6580.8,3416c-298.5,93.8-767.5,204.7-1040.3,245.2C5252.7,3701.7,4634.4,3718.7,4406.3,3691z M5397.6,3456.5c620.4-68.2,1360.1-294.2,1980.5-603.3c545.7-275,929.5-539.4,1306.8-906c362.4-349.6,432.8-481.8,513.8-967.8l44.8-277.1L9107,574.3c-194-179.1-498.9-402.9-650.2-479.7c-179.1-89.5-477.5-183.3-863.4-270.7c-181.2-42.6-522.3-123.6-756.8-181.2C6073.4-547,5992.4-557.7,5227.1-557.7c-539.3,0-769.6,8.5-1172.5,46.9c-1430.4,138.6-1827,249.4-2850.2,797.3L920.8,437.9v172.7c2.1,328.3,87.4,588.4,307,916.7c247.3,368.8,616.1,737.6,1123.5,1121.3c304.8,228.1,456.2,315.5,837.8,475.4C3997,3460.8,4564.1,3546.1,5397.6,3456.5z M9633.5,501.8c29.8-38.4,57.6-194,44.8-253.7c-10.7-61.8-334.7-294.2-511.6-366.7c-87.4-36.2-213.2-72.5-275-81c-98.1-10.7-125.8-4.2-187.6,38.4c-40.5,25.6-76.7,59.7-81,70.3c-2.1,12.8,32,42.6,78.9,70.4c93.8,53.3,445.6,332.6,607.6,481.8c102.3,93.8,110.9,98.1,202.5,85.3C9565.3,540.2,9618.6,521,9633.5,501.8z M982.6,156.5c247.3-138.6,746.1-385.9,903.9-452c140.7-55.4,138.6-59.7-55.4-159.9c-162-83.1-287.8-98-611.8-70.3c-364.5,29.9-564.9,81-712,179.1C334.6-231.5,332.4-227.2,400.7-101.5c78.9,142.8,170.5,247.3,275,309.1c46.9,27.7,91.7,51.2,100.2,51.2C786.5,260.9,878.2,214,982.6,156.5z M8529.3-316.8c44.8-36.2,127.9-76.7,181.2-89.5l100.2-25.6l-279.3-166.3C8053.8-886,7538-1112,7103.1-1224.9c-247.3-66.1-786.7-98.1-756.8-46.9c10.7,17.1,76.7,110.9,147.1,211.1c72.5,100.2,172.7,245.2,223.8,321.9l95.9,138.6l245.2-85.3c221.7-76.7,268.6-85.3,460.5-85.3c321.9-2.1,428.5,44.8,701.4,311.3c119.4,113,217.4,206.8,221.7,208.9C8446.1-250.7,8484.5-280.5,8529.3-316.8z M7987.8-389.3c-179.1-159.9-388-206.8-643.8-147.1l-166.3,36.2l213.2,51.2c117.2,27.7,304.8,72.5,415.7,100.2C8100.8-274.2,8113.6-278.4,7987.8-389.3z M2428-689.9c217.4-219.6,409.3-356,547.9-394.4c106.6-29.8,245.2-12.8,458.3,55.4c89.5,29.8,172.7,53.3,185.5,53.3c25.6,0,123.6-125.8,108.7-140.7c-6.4-6.4-134.3-25.6-283.5-44.8c-684.3-81-1560.5,72.5-1903.7,330.4l-70.4,55.4l162,27.7c155.6,25.6,304.9,89.5,492.5,206.8c46.9,29.9,89.5,55.4,93.8,55.4C2223.4-485.2,2317.2-576.9,2428-689.9z M2997.2-602.4c164.2-27.7,368.8-55.4,449.8-64c236.6-23.5,247.3-29.9,110.9-85.3c-181.2-74.6-356-121.5-454.1-123.6c-110.8,0-230.2,66.1-402.9,230.2c-115.1,108.7-121.5,119.4-66.1,106.6C2668.9-544.9,2830.9-574.7,2997.2-602.4z M8979.1-670.7c-106.6-187.6-159.9-251.5-315.5-377.3c-449.8-360.3-1381.4-733.3-2138.2-854.8c-191.9-29.9-744-72.5-744-57.6c0,8.5,228.1,283.5,319.8,388l53.3,61.8l405,8.5c375.2,8.5,424.2,14.9,648.1,76.7c486,136.4,1072.3,405,1547.7,712c153.5,98.1,281.4,174.8,285.7,172.7C9045.1-544.9,9015.3-602.4,8979.1-670.7z M9245.5-755.9c-21.3-147.1-117.3-400.8-294.2-786.6c-223.8-483.9-258-532.9-537.2-731.2c-603.3-432.8-1016.9-631-1684.1-801.6c-903.9-232.4-1989-249.4-3355.5-51.2c-648.1,93.8-972.1,236.6-1451.8,639.5c-89.5,74.6-302.7,255.8-477.5,400.8c-462.6,388-594.8,558.5-622.5,814.4l-14.9,136.4l93.8-91.7c324-317.6,1127.7-637.4,2001.8-793c496.7-87.4,752.5-113,1238.6-117.3l479.7-4.3l95.9-70.3c228.1-168.4,454.1-200.4,663-95.9c61.8,32,127.9,70.3,147.1,87.4c21.3,19.2,81,29.9,159.9,29.9c456.2,0,1080.8,89.5,1534.9,221.7c240.9,70.4,797.3,289.9,1038.2,409.3c420,211.1,771.7,509.5,908.2,771.7c38.4,72.5,74.6,132.2,81,132.2C9256.2-655.7,9254.1-700.5,9245.5-755.9z M6448.6-743.2c-127.9-215.3-914.6-1191.7-1048.9-1296.1c-187.6-149.2-362.4-147.1-558.5,10.7c-187.6,151.4-739.7,780.3-933.7,1061.6l-68.2,95.9l132.2,68.2l132.2,66.1l409.3-25.6c554.3-36.3,1394.2-17.1,1684.1,38.4C6504-664.3,6495.5-662.1,6448.6-743.2z M1279-890.2c113-104.5,217.5-179.1,334.7-234.5c492.5-236.6,1247.1-330.4,1950.6-245.2c147.1,19.2,281.4,38.4,298.5,42.6c21.3,6.4,68.2-34.1,127.9-113c53.3-66.1,170.5-200.4,262.2-294.2c151.4-159.9,162-174.8,117.2-187.6c-125.8-32-656.6,0-1157.6,74.6c-599,87.4-1157.6,238.8-1577.5,428.5c-437,196.1-603.3,319.8-697.1,518c-85.3,181.2-83.1,189.7,57.6,174.8C1106.3-736.7,1123.3-747.4,1279-890.2z"/><path d="M4440.4,3173c-87.4-49-138.6-191.9-91.7-260.1c49-74.6,247.3-95.9,375.2-42.6c76.7,32,162,127.9,162,183.3c0,55.4-64,100.2-187.6,125.8C4555.6,3209.2,4504.4,3207.1,4440.4,3173z"/><path d="M5446.6,3045.1c-83.1-38.4-93.8-106.6-25.6-189.7c59.7-78.9,187.6-110.8,319.8-78.9c311.3,74.6,262.2,275-70.3,292.1C5563.9,3072.8,5493.6,3066.4,5446.6,3045.1z"/><path d="M3033.4,2925.7c-238.8-51.2-262.2-196.1-51.2-307c106.6-53.3,202.5-61.8,300.6-23.4c159.9,64,226,213.2,132.2,298.4C3363.9,2940.6,3178.4,2955.6,3033.4,2925.7z"/><path d="M6521.1,2853.2c-110.9-40.5-142.8-72.5-142.8-140.7c0-100.2,85.3-149.2,253.7-149.2c264.3,0,392.2,74.6,343.2,200.4C6934.6,2872.4,6702.3,2917.2,6521.1,2853.2z"/><path d="M3705,2646.4c-162-127.9,72.5-304.8,339-255.8c98.1,19.2,181.2,72.5,181.2,119.4c0,29.8-98.1,123.6-164.2,157.8C3980,2708.3,3768.9,2697.6,3705,2646.4z"/><path d="M4809.2,2576.1c-53.3-44.8-57.5-57.6-38.4-121.5c27.7-100.2,130-151.4,285.7-140.7c213.2,12.8,349.6,113,302.7,219.6c-29.9,61.8-140.7,93.8-339,93.8C4890.3,2627.3,4858.3,2618.7,4809.2,2576.1z"/><path d="M2455.7,2335.2c-57.6-29.8-76.7-53.3-81-106.6c-8.5-85.3,44.8-123.6,215.3-157.8c149.2-29.8,262.2-10.7,326.2,59.7c61.8,68.2,66.1,136.4,8.5,187.6C2858.6,2377.8,2558.1,2388.5,2455.7,2335.2z"/><path d="M6000.9,2309.6c-110.9-19.2-155.6-55.4-155.6-130c0-104.5,66.1-138.6,266.5-138.6c200.4,0,292.1,42.6,304.8,142.8C6431.6,2305.3,6273.8,2352.3,6000.9,2309.6z"/><path d="M7090.3,2305.3c-36.3-10.7-83.2-38.4-104.5-61.8c-123.6-136.4,243-298.5,464.7-204.7c157.8,66.1,187.6,187.6,57.6,251.6C7427.1,2333.1,7207.5,2339.5,7090.3,2305.3z"/><path d="M4338.1,2143.3c-61.8-12.8-95.9-57.5-87.4-115.1c10.7-74.6,204.6-168.4,347.5-168.4c191.9,0,326.2,130,226,221.7C4768.7,2132.7,4474.6,2168.9,4338.1,2143.3z"/><path d="M3329.8,2111.4c-55.4-21.3-76.7-40.5-81-85.3c-17.1-151.3,420-294.2,547.9-179.1c25.6,23.5,44.8,53.3,44.8,68.2c0,57.5-53.3,140.7-108.7,168.4C3649.5,2128.4,3419.3,2141.2,3329.8,2111.4z"/><path d="M1878,1851.3c-110.8-38.4-208.9-115.1-223.8-172.7c-12.8-53.3,21.3-134.3,74.6-174.8c93.8-72.5,358.1,6.4,420,125.8c25.6,51.2,27.7,76.7,8.5,136.4C2118.9,1881.1,2033.6,1906.7,1878,1851.3z"/><path d="M5468,1857.7c-183.3-36.2-294.2-119.4-249.4-191.9c6.4-12.8,64-46.9,123.6-74.6c217.5-102.3,503.1-49,503.1,93.8c0,74.6-72.5,147.1-172.7,174.8C5591.6,1883.3,5593.8,1883.3,5468,1857.7z"/><path d="M7776.7,1793.7c-57.5-8.5-119.4-32-136.4-49c-27.7-27.7-27.7-38.4,2.1-83.1c19.2-29.9,78.9-70.4,132.2-91.7c85.3-32,117.2-34.1,228.1-12.8c70.4,12.8,140.7,36.2,157.7,49c49,40.5,25.6,108.7-53.3,162C8030.4,1819.3,7960.1,1825.7,7776.7,1793.7z"/><path d="M6561.6,1746.8c-44.8-14.9-95.9-44.8-110.8-70.4c-27.7-38.4-25.6-51.2,12.8-100.2c59.7-74.6,172.7-108.7,324-93.8c270.7,23.5,311.2,162,74.6,260.1C6772.6,1780.9,6678.8,1780.9,6561.6,1746.8z"/><path d="M2579.4,1665.8c-100.2-51.2-159.9-155.6-121.5-204.7c57.6-66.1,121.5-72.5,345.3-25.6c238.8,49,275,68.2,266.5,134.3C3052.6,1691.4,2741.4,1753.2,2579.4,1665.8z"/><path d="M3641,1623.2c-168.4-40.5-260.1-130-223.8-226c36.2-95.9,153.5-115.1,356-57.5c194,55.4,243,87.4,234.5,153.5C3994.9,1593.3,3807.3,1661.5,3641,1623.2z"/><path d="M4472.4,1473.9c-72.5-57.5-70.4-130,6.4-215.3c57.6-64,72.5-70.3,187.6-68.2c196.1,2.1,364.5,104.5,339,208.9C4977.7,1514.4,4591.8,1567.7,4472.4,1473.9z"/><path d="M5685.4,1198.9c-202.5-81-25.6-277.1,253.7-283.5c132.2-2.1,217.5,42.6,238.8,127.9c29.9,119.4-64,176.9-289.9,174.8C5800.5,1218.1,5708.9,1209.6,5685.4,1198.9z"/><path d="M2654,1158.4c-91.7-57.6-93.8-127.9-6.4-202.5c134.3-110.8,321.9-115.1,456.2-10.7c72.5,57.5,68.2,136.4-14.9,198.3C2999.3,1209.6,2747.8,1218.1,2654,1158.4z"/><path d="M7107.3,1167c-162-51.2-194-113-102.3-200.4c66.1-61.8,166.3-74.6,343.2-46.9c168.4,25.6,215.3,57.6,194,138.6C7512.4,1181.9,7312,1230.9,7107.3,1167z"/><path d="M3888.3,1034.8c-145-70.4-166.3-189.7-46.9-251.6c87.4-44.8,462.6-44.8,528.7,2.1C4570.5,926.1,4129.2,1154.2,3888.3,1034.8z"/></g></g>
</svg>